<?xml version="1.0" ?><svg fill="none" height="24" viewBox="0 0 24 24" width="24" xmlns="http://www.w3.org/2000/svg"><path clip-rule="evenodd" d="M1.5 2C1.5 1.72386 1.72386 1.5 2 1.5H10.5C10.7761 1.5 11 1.72386 11 2V10.5C11 10.7761 10.7761 11 10.5 11H2C1.72386 11 1.5 10.7761 1.5 10.5V2ZM2.5 2.5V10H10V2.5H2.5Z" fill="white" fill-rule="evenodd"/><path clip-rule="evenodd" d="M1.5 13.5C1.5 13.2239 1.72386 13 2 13H10.5C10.7761 13 11 13.2239 11 13.5V22C11 22.2761 10.7761 22.5 10.5 22.5H2C1.72386 22.5 1.5 22.2761 1.5 22V13.5ZM2.5 14V21.5H10V14H2.5Z" fill="white" fill-rule="evenodd"/><path clip-rule="evenodd" d="M4 4.5C4 4.22386 4.22386 4 4.5 4H8C8.27614 4 8.5 4.22386 8.5 4.5V8C8.5 8.27614 8.27614 8.5 8 8.5H4.5C4.22386 8.5 4 8.27614 4 8V4.5ZM5 5V7.5H7.5V5H5Z" fill="white" fill-rule="evenodd"/><path clip-rule="evenodd" d="M4 16C4 15.7239 4.22386 15.5 4.5 15.5H8C8.27614 15.5 8.5 15.7239 8.5 16V19.5C8.5 19.7761 8.27614 20 8 20H4.5C4.22386 20 4 19.7761 4 19.5V16ZM5 16.5V19H7.5V16.5H5Z" fill="white" fill-rule="evenodd"/><path clip-rule="evenodd" d="M15.5 4.5C15.5 4.22386 15.7239 4 16 4H19.5C19.7761 4 20 4.22386 20 4.5V8C20 8.27614 19.7761 8.5 19.5 8.5H16C15.7239 8.5 15.5 8.27614 15.5 8V4.5ZM16.5 5V7.5H19V5H16.5Z" fill="white" fill-rule="evenodd"/><path clip-rule="evenodd" d="M13 2C13 1.72386 13.2239 1.5 13.5 1.5H22C22.2761 1.5 22.5 1.72386 22.5 2V10.5C22.5 10.7761 22.2761 11 22 11H13.5C13.2239 11 13 10.7761 13 10.5V2ZM14 2.5V10H21.5V2.5H14Z" fill="white" fill-rule="evenodd"/><path clip-rule="evenodd" d="M13 13H22V14H13V13Z" fill="whitek" fill-rule="evenodd"/><path clip-rule="evenodd" d="M19 17.5H16V16.5H19V17.5Z" fill="white" fill-rule="evenodd"/><path clip-rule="evenodd" d="M16 21.5H13V20.5H16V21.5Z" fill="white" fill-rule="evenodd"/><path clip-rule="evenodd" d="M22 21.5H19V20.5H22V21.5Z" fill="white" fill-rule="evenodd"/></svg>